PathFileType	4	(X/Y/Z)	E:\Qualisys_Data\Carbon_Farble_Plate\Data\Amateur_Runner\S1\T2\S1T2V22_c3d.trc
DataRate	CameraRate	NumFrames	NumMarkers	Units	OrigDataRate	OrigDataStartFrame	OrigNumFrames
200.000000	200.000000	4	39	mm	200.000000	114	304
Frame#	Time	LSHO			RSHO			LICST			RICST			LASIS			LHEEL			RASIS			LTROC			RTROC			SACR			LTH1			LSK4			LTH2			LTH3			RHM5			LSK2			LTH4			RTH1			LTOE			RTH2			RTH3			RTH4			LLEP			RLEP			LSK1			LSK3			RSK1			LHM5			RSK2			LFT1			RSK3			RSK4			LLME			RLME			RTOE			RHEEL			RFT1			RFT2			LFT2			
		X1	Y1	Z1	X2	Y2	Z2	X3	Y3	Z3	X4	Y4	Z4	X5	Y5	Z5	X6	Y6	Z6	X7	Y7	Z7	X8	Y8	Z8	X9	Y9	Z9	X10	Y10	Z10	X11	Y11	Z11	X12	Y12	Z12	X13	Y13	Z13	X14	Y14	Z14	X15	Y15	Z15	X16	Y16	Z16	X17	Y17	Z17	X18	Y18	Z18	X19	Y19	Z19	X20	Y20	Z20	X21	Y21	Z21	X22	Y22	Z22	X23	Y23	Z23	X24	Y24	Z24	X25	Y25	Z25	X26	Y26	Z26	X27	Y27	Z27	X28	Y28	Z28	X29	Y29	Z29	X30	Y30	Z30	X31	Y31	Z31	X32	Y32	Z32	X33	Y33	Z33	X34	Y34	Z34	X35	Y35	Z35	X36	Y36	Z36	X37	Y37	Z37	X38	Y38	Z38	X39	Y39	Z39	

115	0.57	-1092.1865234375	1432.59765625	-602.0105590820312	-1114.711303710938	1451.000122070312	-268.3915100097656	-1155.570678710938	994.1632080078124	-552.41796875	-1157.053833007812	1000.973388671875	-249.8165435791016	-1110.3046875	956.3233642578124	-525.5398559570312	-1429.832275390625	100.9027786254883	-420.7086486816406	-1117.721435546875	954.249755859375	-259.2626953125	-1221.97021484375	875.6561279296875	-572.08544921875	-1219.730102539062	858.773193359375	-235.2340698242188	-1274.606201171875	1015.007263183594	-398.9097290039062	-1087.371215820312	722.6428833007812	-555.2412109375	-1338.325805664062	247.1626434326172	-470.9721984863281	-1169.4287109375	712.3046264648438	-574.0648193359375	-1080.840698242188	620.317138671875	-538.397216796875	-1321.826049804688	234.0134887695312	-248.9922180175781	-1274.673583984375	320.460693359375	-514.8098754882812	-1165.596435546875	614.5364379882812	-549.2288208007812	-1045.31884765625	790.020751953125	-245.7107238769531	-1179.065673828125	57.72443389892578	-427.606201171875	-1111.14501953125	748.3549194335938	-222.9021453857422	-991.4286499023438	702.9800415039062	-245.8242645263672	-1061.140380859375	661.8906860351562	-231.6763763427734	-1122.224853515625	467.7830505371094	-508.2493896484375	-962.720458984375	531.0892944335938	-266.6045227050781	-1209.242797851562	272.5374450683594	-494.6958923339844	-1273.363403320312	195.3359680175781	-483.3367919921875	-1115.039672851562	439.4604187011719	-259.8804016113281	-1247.400634765625	46.11252212524414	-501.62158203125	-1148.130493164062	513.7739868164062	-273.8643798828125	-1425.352905273438	70.59889221191406	-396.4651489257812	-1203.78369140625	395.8123168945312	-273.5856628417969	-1235.181030273438	467.2432556152344	-296.7525329589844	-1364.688842773438	119.4543685913086	-475.4680786132812	-1333.1318359375	372.6990661621094	-279.6182861328125	-1273.62744140625	184.1853332519531	-318.6984252929688	-1397.631469726562	405.5079040527344	-328.4081115722656	-1420.225952148438	374.7334899902344	-356.4578247070312	-1421.976196289062	388.5595092773438	-301.3847351074219	-1432.431518554688	68.57102966308594	-450.184814453125
116	0.575	-1070.120239257812	1435.64794921875	-601.3218383789062	-1096.569702148438	1453.603515625	-267.8394470214844	-1134.23193359375	995.3009643554688	-553.4221801757812	-1137.644897460938	1004.424499511719	-250.8085174560547	-1092.051513671875	954.1657104492188	-529.1315307617188	-1429.751953125	102.179443359375	-420.7549438476562	-1098.730590820312	957.2172241210938	-259.6712646484375	-1203.140014648438	877.3268432617188	-572.2272338867188	-1199.7890625	862.4083251953125	-234.2963409423828	-1253.805419921875	1017.684326171875	-400.2599487304688	-1071.7333984375	723.4583740234375	-553.8038330078125	-1330.476928710938	250.0924682617188	-470.9434204101562	-1153.952392578125	714.1460571289062	-573.9776611328125	-1067.793334960938	620.3286743164062	-536.9154052734375	-1280.710327148438	227.2084350585938	-248.6429595947266	-1269.86328125	322.4428100585938	-513.4856567382812	-1152.834716796875	616.2476806640625	-548.7206420898438	-1024.285766601562	796.4652709960938	-245.9583587646484	-1178.884521484375	57.48355102539062	-427.2826232910156	-1089.242431640625	753.445068359375	-223.3478698730469	-968.392822265625	711.0498046875	-246.88037109375	-1037.052856445312	667.8565063476562	-232.7219390869141	-1114.899047851562	467.7559509277344	-507.82080078125	-935.0567626953124	539.75341796875	-267.7344970703125	-1205.518920898438	273.8136901855469	-494.4069213867188	-1270.515869140625	197.5362548828125	-483.149658203125	-1083.960693359375	441.6160888671875	-260.5825805664062	-1247.189575195312	46.42050170898438	-501.5506591796875	-1120.471923828125	514.61865234375	-274.5081481933594	-1424.873779296875	72.00983428955078	-396.0564575195312	-1170.7646484375	393.8433532714844	-274.2543334960938	-1205.525268554688	463.8419189453125	-297.3673095703125	-1363.030151367188	122.666877746582	-475.5038757324219	-1298.699340820312	366.078369140625	-277.4554748535156	-1229.503173828125	180.0891571044922	-317.5072326660156	-1367.500122070312	393.0061645507812	-328.8916015625	-1384.80419921875	362.5274047851562	-355.5282592773438	-1388.098754882812	375.888427734375	-300.9505615234375	-1432.052490234375	69.98175811767578	-449.9857177734375
117	0.58	-1048.933959960938	1438.740356445312	-600.6925048828125	-1078.392333984375	1456.650512695312	-267.1032104492188	-1114.238647460938	997.599365234375	-554.4027709960938	-1118.04150390625	1007.758972167969	-251.7667541503906	-1070.265625	957.01513671875	-527.4117431640625	-1428.399291992188	107.0631256103516	-421.0615234375	-1078.70849609375	960.886474609375	-260.0243835449219	-1182.52783203125	879.201171875	-571.7733154296875	-1179.220458984375	866.6350708007812	-233.6940155029297	-1233.798706054688	1020.657775878906	-401.8788452148438	-1055.61767578125	722.9222412109375	-551.491943359375	-1327.157470703125	254.2190246582031	-470.4990234375	-1137.86962890625	715.5584106445312	-573.226318359375	-1054.387451171875	620.0419311523438	-535.0728759765625	-1239.113525390625	220.8089599609375	-248.1645660400391	-1265.825561523438	325.5331726074219	-512.4267578125	-1139.594604492188	618.053466796875	-548.0759887695312	-1003.044372558594	803.4072875976562	-246.8238983154297	-1177.961547851562	57.28353500366211	-426.8620910644531	-1066.9775390625	758.724853515625	-223.7962799072266	-945.0604858398438	718.7779541015625	-247.8764038085938	-1012.945434570312	674.6697387695312	-233.2949523925781	-1106.2275390625	467.7181701660156	-506.3525390625	-908.3524169921876	548.1254272460938	-268.9525146484375	-1202.520385742188	275.8643493652344	-494.2742919921875	-1267.784301757812	201.1111297607422	-483.4685974121094	-1052.62353515625	444.9918823242188	-259.4930725097656	-1247.13232421875	47.36746978759766	-501.4016418457031	-1093.219604492188	515.159423828125	-275.2663269042969	-1423.202270507812	75.76879119873047	-396.4744262695312	-1137.130493164062	392.1680908203125	-274.2271423339844	-1175.332763671875	459.6810302734375	-297.78076171875	-1361.471923828125	126.2328643798828	-475.6813049316406	-1264.567993164062	358.3340454101562	-278.0210266113281	-1185.661010742188	176.1733245849609	-316.1163024902344	-1334.417114257812	381.358154296875	-329.01953125	-1350.097412109375	349.7741088867188	-356.0494689941406	-1355.185668945312	362.8797302246094	-302.1381530761719	-1430.415283203125	74.92855834960938	-449.5153503417969
118	0.585	-1027.376342773438	1442.144287109375	-599.4661865234375	-1061.911987304688	1459.929931640625	-267.2919006347656	-1094.31396484375	995.9191284179688	-557.1283569335938	-1097.667846679688	1011.738220214844	-252.6894226074219	-1049.630981445312	958.6246337890624	-528.0025024414062	-1424.831909179688	113.4309387207031	-421.527099609375	-1058.272094726562	964.9237060546876	-260.5096740722656	-1163.948364257812	881.2772216796875	-571.6803588867188	-1158.10400390625	870.600341796875	-233.2403259277344	-1212.951538085938	1023.306213378906	-402.923583984375	-1039.509155273438	722.7737426757812	-548.6914672851562	-1323.4189453125	258.1775207519531	-469.4331970214844	-1121.489624023438	717.791259765625	-573.1611938476562	-1041.789184570312	619.7530517578125	-532.758056640625	-1197.54052734375	214.4017028808594	-247.6040649414062	-1261.378295898438	329.3125305175781	-511.4352111816406	-1126.232543945312	620.3069458007812	-547.6121215820312	-981.7522583007812	809.9404907226562	-247.2535858154297	-1178.551147460938	56.89100646972656	-426.6756591796875	-1044.489013671875	764.1766357421875	-224.3154754638672	-922.0020751953124	726.647705078125	-248.8010864257812	-988.75732421875	681.0899047851562	-234.1018371582031	-1099.400390625	468.8681640625	-505.6006164550781	-881.6630249023438	556.3248291015625	-269.7908630371094	-1199.480712890625	278.7467956542969	-494.4625244140625	-1264.881103515625	204.0559234619141	-482.9685974121094	-1022.442687988281	447.0392456054688	-260.0284729003906	-1246.624633789062	47.62825393676758	-500.4461975097656	-1065.917358398438	514.9656372070312	-276.08544921875	-1421.330200195312	82.95941925048828	-396.6567993164062	-1104.293823242188	389.7666015625	-274.7902221679688	-1145.35205078125	455.4540710449219	-299.0423583984375	-1358.794067382812	130.6404876708984	-475.3336486816406	-1229.893310546875	350.1079711914062	-278.1142578125	-1140.464965820312	172.4382019042969	-316.6284484863281	-1301.280151367188	369.7850341796875	-328.7177124023438	-1316.127319335938	337.7059936523438	-356.5538635253906	-1321.026245117188	350.3092956542969	-302.3101806640625	-1427.737915039062	81.31681823730469	-450.45166015625
